<?xml version="1.0" encoding="UTF-8"?>
<svg width="220px" height="32px" viewBox="0 0 220 32" version="1.1" xmlns="http://www.w3.org/2000/svg" xmlns:xlink="http://www.w3.org/1999/xlink">
    <title>Acumen Labs Logo Update v1 Copy 2</title>
    <defs>
        <linearGradient x1="682.307361%" y1="49.986825%" x2="223.969006%" y2="49.986825%" id="linearGradient-1">
            <stop stop-color="#FFFFFF" offset="0%"></stop>
            <stop stop-color="#2FA68F" offset="11%"></stop>
            <stop stop-color="#28877D" offset="31%"></stop>
            <stop stop-color="#1B5662" offset="56%"></stop>
            <stop stop-color="#FFFFFF" offset="100%"></stop>
        </linearGradient>
        <linearGradient x1="330.866336%" y1="49.9990417%" x2="67.3217821%" y2="49.9990417%" id="linearGradient-2">
            <stop stop-color="#FFFFFF" offset="0%"></stop>
            <stop stop-color="#2FA68F" offset="11%"></stop>
            <stop stop-color="#28877D" offset="31%"></stop>
            <stop stop-color="#1B5662" offset="56%"></stop>
            <stop stop-color="#FFFFFF" offset="100%"></stop>
        </linearGradient>
        <linearGradient x1="212.949286%" y1="49.9873935%" x2="-49.1678976%" y2="49.9873935%" id="linearGradient-3">
            <stop stop-color="#32B195" offset="0%"></stop>
            <stop stop-color="#2FA68F" offset="11%"></stop>
            <stop stop-color="#28877D" offset="31%"></stop>
            <stop stop-color="#FFFFFF" offset="100%"></stop>
        </linearGradient>
        <linearGradient x1="146.001653%" y1="50%" x2="-306.658754%" y2="50%" id="linearGradient-4">
            <stop stop-color="#32B195" offset="0%"></stop>
            <stop stop-color="#2FA68F" offset="11%"></stop>
            <stop stop-color="#28877D" offset="31%"></stop>
            <stop stop-color="#1B5662" offset="56%"></stop>
            <stop stop-color="#0F2345" offset="80%"></stop>
        </linearGradient>
    </defs>
    <g id="Page-1" stroke="none" stroke-width="1" fill="none" fill-rule="evenodd">
        <g id="Acumen-Labs-Logo-Update-v1-Copy">
            <path d="M154.938578,25.0953101 L143.955219,30.6502269 C143.818705,30.7201585 143.74766,30.8743282 143.783187,31.0235407 C143.818713,31.1727531 143.951612,31.2783648 144.104992,31.2792738 L166.081694,31.2792738 C166.235075,31.2783648 166.367973,31.1727531 166.4035,31.0235407 C166.439027,30.8743282 166.367982,30.7201585 166.231467,30.6502269 L155.248109,25.0953101 C155.151208,25.0444142 155.035478,25.0444142 154.938578,25.0953101 Z" id="Path" fill="#32B195" fill-rule="nonzero"></path>
            <path d="M136.043873,14.311649 C135.445681,13.4259119 134.683014,12.6632453 133.797277,12.065053 C132.899701,11.4542862 131.889239,11.0288284 130.825113,10.8136157 C129.175333,10.4746608 127.461596,10.6428907 125.909228,11.2962179 C125.415324,11.5067734 124.94276,11.7642313 124.498033,12.065053 C124.055141,12.3572052 123.641609,12.6915977 123.263238,13.0635401 C122.884381,13.446726 122.542289,13.8645912 122.241452,14.311649 C121.941694,14.7564556 121.685348,15.2290235 121.475946,15.7228442 C121.306635,16.1288442 121.168663,16.5472129 121.063238,16.9742814 L137.222088,16.9742814 C137.119331,16.5511829 136.982422,16.137117 136.812708,15.7361573 C136.603471,15.2373978 136.345967,14.7602918 136.043873,14.311649 L136.043873,14.311649 Z" id="Path"></path>
            <path d="M36.1485628,13.0835098 C38.1058588,11.1251644 40.9090556,10.2687016 43.6266267,10.7987315 C46.3441979,11.3287613 48.6201008,13.1758419 49.6980333,15.7261725 C49.7698262,15.8951773 49.964927,15.9741112 50.1340393,15.9025719 L53.1993949,14.6078669 C53.2813579,14.5733156 53.3460808,14.5073941 53.3791225,14.4248109 C53.4124114,14.3437799 53.4124114,14.2528918 53.3791225,14.1718608 C51.0989416,8.78750303 45.3420188,5.75400064 39.6116475,6.91734822 C33.8812761,8.08069579 29.763045,13.118996 29.763045,18.9662632 C29.763045,24.8135305 33.8812761,29.8518307 39.6116475,31.0151783 C45.3420188,32.1785258 51.0989416,29.1450234 53.3791225,23.7606657 C53.41333,23.678664 53.41333,23.586389 53.3791225,23.5043873 C53.3460808,23.4218041 53.2813579,23.3558826 53.1993949,23.3213313 L50.1340393,22.0266263 C49.964927,21.955087 49.7698262,22.0340209 49.6980333,22.2030257 C48.391844,25.2972023 45.3535256,27.3027304 41.9949795,27.2876445 C38.6364335,27.2725585 35.6162542,25.2398169 34.3379139,22.1340311 C33.0595735,19.0282453 33.7737485,15.4584448 36.1485628,13.0835098 L36.1485628,13.0835098 Z" id="Path" fill="#FFFFFF" fill-rule="nonzero"></path>
            <path d="M76.2178517,6.83963691 L72.8895613,6.83963691 C72.7057449,6.83963691 72.5567322,6.98864955 72.5567322,7.17246596 L72.5567322,21.277761 C72.5567322,24.5956471 69.8670541,27.2853253 66.5491679,27.2853253 C63.2312818,27.2853253 60.5416036,24.5956471 60.5416036,21.277761 L60.5416036,7.17246596 C60.5416036,6.98864955 60.392591,6.83963691 60.2087746,6.83963691 L56.8804841,6.83963691 C56.6966677,6.83963691 56.5476551,6.98864955 56.5476551,7.17246596 L56.5476551,21.277761 C56.5476551,26.8014439 61.025485,31.2792735 66.5491679,31.2792735 C72.0728508,31.2792735 76.5506808,26.8014439 76.5506808,21.277761 L76.5506808,7.17246596 C76.5506808,6.98864955 76.4016681,6.83963691 76.2178517,6.83963691 Z" id="Path" fill="#FFFFFF" fill-rule="nonzero"></path>
            <path d="M149.080787,10.3343419 C149.094675,7.06499938 151.71638,4.40487112 154.985174,4.34341906 C156.603465,4.34165237 158.156081,4.98327812 159.301011,6.12695925 C160.44594,7.27064038 161.08926,8.82255473 161.089259,10.4408472 L161.089259,23.1881997 C161.089514,23.2917693 161.142108,23.3881904 161.229047,23.4444781 L164.617247,25.1086233 C164.711001,25.165981 164.828305,25.168691 164.924609,25.1157241 C165.020912,25.0627572 165.081441,24.9622391 165.083239,24.8523449 L165.083239,10.3343419 C165.092743,6.54032834 162.951196,3.06871087 159.556306,1.37479484 C156.161416,-0.319121182 152.099815,0.0573707179 149.07413,2.34644478 L149.07413,0.665658094 C149.07413,0.481841687 148.925117,0.332829047 148.741301,0.332829047 L145.413011,0.332829047 C145.229194,0.332829047 145.080182,0.481841687 145.080182,0.665658094 L145.080182,24.8556732 C145.081948,24.9655674 145.142476,25.0660854 145.23878,25.1190524 C145.335083,25.1720193 145.452387,25.1693093 145.546142,25.1119516 L148.934342,23.4478064 C149.021281,23.3915187 149.073874,23.2950976 149.07413,23.191528 L149.080787,10.3343419 Z" id="Path" fill="#FFFFFF" fill-rule="nonzero"></path>
            <path d="M104.331921,6.83960666 C101.551376,6.8504407 98.9247946,8.11785492 97.1860817,10.2877458 C95.445174,8.11513654 92.8143064,6.84742549 90.0302572,6.83960666 C88.1814779,6.8348605 86.3754906,7.3958199 84.8547655,8.44720121 L84.8547655,7.17912254 C84.8547655,6.99530613 84.7057529,6.84629349 84.5219365,6.84629349 L81.193646,6.84629349 C81.0098296,6.84629349 80.8608169,6.99530613 80.8608169,7.17912254 L80.8608169,30.9531014 C80.8608169,31.1369178 81.0098296,31.2859596 81.193646,31.2859596 L84.5219365,31.2859596 C84.7057529,31.2859596 84.8547655,31.1369178 84.8547655,30.9531014 L84.8547655,16.0090772 C84.9040768,13.2713805 87.07853,11.0464759 89.8143758,10.9343945 C92.5502216,10.8223131 94.8993812,12.8618955 95.172466,15.5863843 C95.172466,15.7261725 95.172466,15.869289 95.172466,16.0090772 L95.172466,30.9531014 C95.1881813,31.1429649 95.3480802,31.2883275 95.5385779,31.2859596 L98.8668684,31.2859596 C99.0506848,31.2859596 99.1996974,31.1369178 99.1996974,30.9531014 L99.1996974,16.0090772 C99.1996974,15.869289 99.1996974,15.7261725 99.1996974,15.5863843 C99.4727822,12.8618955 101.821942,10.8223131 104.557788,10.9343945 C107.293633,11.0464759 109.468087,13.2713805 109.517398,16.0090772 L109.517398,30.9531014 C109.517398,31.1369178 109.666411,31.2859596 109.850227,31.2859596 L113.178517,31.2859596 C113.362334,31.2859596 113.511346,31.1369178 113.511346,30.9531014 L113.511346,16.0090772 C113.505836,10.9433204 109.397681,6.83960666 104.331921,6.83960666 L104.331921,6.83960666 Z" id="Path" fill="#FFFFFF" fill-rule="nonzero"></path>
            <path d="M140.490469,14.1718608 C139.872678,12.7084449 138.976271,11.3790941 137.851135,10.2577912 C137.293805,9.70022681 136.684139,9.19755945 136.03056,8.75673222 C135.371785,8.30950666 134.670569,7.92824177 133.937065,7.61845688 C133.191275,7.30402961 132.416538,7.06324806 131.623903,6.89954614 C129.181765,6.39841606 126.645095,6.64906598 124.34826,7.61845688 C122.888227,8.24066881 121.560768,9.13656222 120.437519,10.2577912 C119.312383,11.3790941 118.415975,12.7084449 117.798185,14.1718608 C117.481214,14.9224573 117.24037,15.7029692 117.079274,16.5016641 C115.896061,22.2548038 118.940549,28.0428134 124.351589,30.3273828 C125.096835,30.6432978 125.871721,30.8841257 126.66475,31.0462935 C128.301051,31.3790923 129.987602,31.3790923 131.623903,31.0462935 C132.416933,30.8841257 133.191819,30.6432978 133.937065,30.3273828 C136.136854,29.3965899 138.019163,27.8472691 139.355522,25.8674735 C139.456441,25.7156045 139.416372,25.5108059 139.265658,25.4081694 L136.506505,23.5443268 C136.433274,23.4947841 136.343338,23.4764158 136.256545,23.493275 C136.169751,23.5101342 136.093232,23.5608352 136.043873,23.6341906 C135.745571,24.0761346 135.405644,24.4885049 135.028744,24.8656581 C134.649943,25.2367637 134.237706,25.5721239 133.797277,25.8674735 C133.35247,26.1672322 132.879902,26.423578 132.386082,26.6329803 C131.883622,26.8467789 131.360564,27.008492 130.825113,27.1155825 C129.717136,27.3418876 128.574846,27.3418876 127.466868,27.1155825 C126.931255,27.0060286 126.408222,26.8420928 125.9059,26.6263238 C124.911134,26.2098375 124.006817,25.6039451 123.243268,24.8423601 C122.480022,24.0801745 121.873897,23.1755103 121.459304,22.1797277 C121.296623,21.7865706 121.164215,21.3815595 121.063238,20.96823 L141.119516,20.96823 C141.303332,20.96823 141.452361,20.8192173 141.452361,20.6354009 L141.452361,18.9712557 C141.455003,17.3248084 141.125592,15.6947345 140.483812,14.1785174 L140.490469,14.1718608 Z M121.063238,16.9742814 C121.170989,16.5481584 121.311187,16.1309044 121.482602,15.7261725 C121.692004,15.2323518 121.94835,14.7597839 122.248109,14.3149773 C122.548564,13.8726833 122.889519,13.4593032 123.266566,13.0801815 C123.644938,12.7082392 124.05847,12.3738467 124.501362,12.0816944 C124.946088,11.7808728 125.418652,11.5234148 125.912557,11.3128593 C127.983818,10.4426435 130.318149,10.4426435 132.38941,11.3128593 C132.881527,11.5182995 133.352947,11.7701692 133.797277,12.065053 C134.683014,12.6632453 135.445681,13.4259119 136.043873,14.311649 C136.345397,14.7571203 136.602887,15.2308575 136.812708,15.7261725 C136.982935,16.1303641 137.11985,16.5477893 137.222088,16.9742814 L121.063238,16.9742814 Z" id="Shape" fill="#FFFFFF" fill-rule="nonzero"></path>
            <path d="M29.8514372,30.8166415 L16.7712557,0.532526475 C16.7186364,0.411952944 16.5999336,0.333687369 16.4683812,0.332827016 L13.4130106,0.332827016 C13.2802496,0.332366742 13.1599118,0.410847922 13.1068079,0.532526475 L0.0266263238,30.8199697 C-0.0173387047,30.9221529 -0.00734788648,31.0395451 0.0532526475,31.132829 C0.114358566,31.2280715 0.219669805,31.2859324 0.332829047,31.2859324 L3.95733737,31.2859324 C4.09009836,31.2863927 4.21043617,31.2079115 4.26354009,31.086233 L14.9406959,6.36036309 L25.6278366,31.0795764 C25.6804559,31.2001499 25.7991587,31.2784155 25.930711,31.2792738 L29.5585477,31.2792738 C29.6698853,31.2786978 29.7735607,31.2224883 29.8347958,31.1295008 C29.8921489,31.0345087 29.8983897,30.9171817 29.8514372,30.8166415 Z" id="Path" fill="#FFFFFF" fill-rule="nonzero"></path>
            <path d="M19.5204236,22.4959153 L18.0826021,19.1676248 C18.0305146,19.0446428 17.9099571,18.9647079 17.7763994,18.9645991 L12.1183056,18.9645991 C11.98596,18.9660338 11.8670412,19.0457486 11.8154312,19.1676248 L10.3776097,22.4959153 C10.3322041,22.5966675 10.3397683,22.7133867 10.3977985,22.8074356 C10.4558286,22.9014844 10.556756,22.9605966 10.667171,22.9652147 L19.2142209,22.9652147 C19.3276026,22.9661032 19.4336423,22.9092191 19.4956016,22.8142597 C19.5575608,22.7193004 19.5669151,22.5993308 19.5204236,22.4959153 Z" id="Path" fill="#FFFFFF" fill-rule="nonzero"></path>
            <path d="M173.467171,18.5850746 L171.803026,18.5850746 C171.742111,18.5833827 171.682982,18.6058764 171.63866,18.6477015 C171.594338,18.6895267 171.568457,18.7472533 171.566717,18.8081694 L171.566717,30.9930408 C171.568457,31.0539569 171.594338,31.1116836 171.63866,31.1535088 C171.682982,31.1953339 171.742111,31.2178276 171.803026,31.2161357 L179.062027,31.2161357 C179.122942,31.2178276 179.182071,31.1953339 179.226393,31.1535088 C179.270715,31.1116836 179.296596,31.0539569 179.298336,30.9930408 L179.298336,29.4886536 C179.294709,29.3612853 179.189433,29.2604579 179.062027,29.2623298 L173.939788,29.2623298 C173.878874,29.2641211 173.819745,29.2416274 173.775423,29.1998023 C173.7311,29.1579771 173.70522,29.1002504 173.70348,29.0393343 L173.70348,18.8081694 C173.70174,18.7472533 173.675859,18.6895267 173.631537,18.6477015 C173.587214,18.6058764 173.528086,18.5833827 173.467171,18.5850746 Z" id="Path" fill="url(#linearGradient-1)" fill-rule="nonzero"></path>
            <path d="M191.100454,20.0229955 C191.09607,20.1163479 191.037081,20.1983471 190.949967,20.2321849 C190.862852,20.2660227 190.76398,20.2453416 190.697731,20.1794251 C189.528528,19.1190062 187.999089,18.5441276 186.420877,18.5718608 C182.786384,18.5718608 179.830862,21.4175492 179.830862,24.9155825 C179.830862,28.4136157 182.786384,31.2593041 186.420877,31.2593041 C188.00366,31.2904475 189.538472,30.7153395 190.711044,29.6517398 C190.777293,29.5858233 190.876166,29.5651422 190.96328,29.59898 C191.050394,29.6328178 191.109383,29.714817 191.113767,29.8081694 L191.113767,30.9730711 C191.117394,31.1004393 191.22267,31.2012668 191.350076,31.1993949 L193.040847,31.1993949 C193.168253,31.2012668 193.273529,31.1004393 193.277156,30.9730711 L193.277156,18.8680787 C193.277156,18.8060001 193.252075,18.7465553 193.207556,18.7032906 C193.163037,18.6600259 193.1029,18.6366272 193.040847,18.6384266 L191.353404,18.6384266 C191.292489,18.6366354 191.23336,18.659129 191.189038,18.7009542 C191.144716,18.7427793 191.118835,18.800506 191.117095,18.8614221 L191.100454,20.0229955 Z M191.100454,24.9155825 C191.100454,27.3518911 189.10348,29.2423601 186.544024,29.2423601 C183.984569,29.2423601 181.987595,27.3352496 181.987595,24.9155825 C181.987595,22.4959153 183.984569,20.5888048 186.544024,20.5888048 C189.10348,20.5888048 191.100454,22.4792738 191.100454,24.9155825 Z" id="Shape" fill="url(#linearGradient-2)" fill-rule="nonzero"></path>
            <path d="M202.413313,18.5119516 C200.823256,18.4851369 199.282885,19.0660494 198.106505,20.1361573 C198.039277,20.205575 197.936557,20.2270648 197.84714,20.1904184 C197.757723,20.153772 197.699629,20.0663747 197.700454,19.9697428 L197.700454,15.5364599 C197.698714,15.4755438 197.672833,15.4178171 197.628511,15.375992 C197.584189,15.3341668 197.52506,15.3116732 197.464145,15.3133651 L195.766717,15.3133651 C195.705802,15.3116732 195.646674,15.3341668 195.602351,15.375992 C195.558029,15.4178171 195.532149,15.4755438 195.530408,15.5364599 L195.530408,30.9930408 C195.532149,31.0539569 195.558029,31.1116836 195.602351,31.1535088 C195.646674,31.1953339 195.705802,31.2178276 195.766717,31.2160363 L197.464145,31.2160363 C197.52506,31.2178276 197.584189,31.1953339 197.628511,31.1535088 C197.672833,31.1116836 197.698714,31.0539569 197.700454,30.9930408 L197.700454,29.814826 C197.704838,29.7214735 197.763827,29.6394744 197.850941,29.6056366 C197.938055,29.5717988 198.036928,29.5924798 198.103177,29.6583964 C199.280604,30.7293409 200.821895,31.3113418 202.413313,31.2859304 C206.074433,31.2859304 209.049924,28.4236006 209.049924,24.9022693 C209.049924,21.380938 206.074433,18.5119516 202.413313,18.5119516 Z M206.879879,24.8956127 C206.879879,27.3485628 204.862935,29.2689864 202.290166,29.2689864 C199.717398,29.2689864 197.700454,27.3485628 197.700454,24.8956127 C197.700454,22.4426626 199.697428,20.522239 202.286838,20.522239 C204.876248,20.522239 206.879879,22.4426626 206.879879,24.8956127 Z" id="Shape" fill="url(#linearGradient-3)" fill-rule="nonzero"></path>
            <path d="M215.470197,24.0036309 C213.69289,23.5409985 212.611195,23.1881997 212.611195,22.1564297 C212.611195,21.0647504 213.76944,20.5754917 214.9177,20.5754917 C215.50348,20.5754917 216.878064,20.7019667 217.513767,21.8402421 C217.545175,21.8971538 217.598354,21.9388648 217.66111,21.9558088 C217.723866,21.9727528 217.790812,21.963476 217.846596,21.9301059 L219.271104,21.197882 C219.324873,21.1722652 219.365702,21.1256146 219.383969,21.0689258 C219.402235,21.012237 219.396323,20.9505251 219.367625,20.8983359 C218.548865,19.4372163 216.908018,18.5685325 214.931014,18.5685325 C212.384871,18.5685325 210.464448,20.109531 210.464448,22.1531014 C210.464448,24.6992436 212.85416,25.3216339 214.791225,25.8142209 C216.568533,26.2768533 217.646899,26.629652 217.646899,27.6614221 C217.646899,29.1092284 215.862935,29.2656581 215.0941,29.2656581 C213.689561,29.2656581 212.557943,28.6732224 212.098638,27.6980333 C212.06829,27.6401067 212.015873,27.5968594 211.953236,27.5780683 C211.890599,27.5592773 211.823032,27.5665292 211.765809,27.5981846 L210.30469,28.3337368 C210.197821,28.3848262 210.150706,28.5114486 210.198185,28.6199697 C210.977005,30.2608169 212.834191,31.2826021 215.100756,31.2826021 C217.876551,31.2826021 219.816944,29.7981846 219.816944,27.6747352 C219.780333,25.1252648 217.39062,24.5028744 215.470197,24.0036309 Z" id="Path" fill="url(#linearGradient-4)" fill-rule="nonzero"></path>
        </g>
    </g>
</svg>