<svg id="Layer_1" data-name="Layer 1" xmlns="http://www.w3.org/2000/svg" xmlns:xlink="http://www.w3.org/1999/xlink" viewBox="0 0 660.34 92.98"><defs><style>.cls-1{fill:#32b195;}.cls-2{fill:none;}.cls-3{fill:#0f2345;}.cls-4{fill:url(#linear-gradient);}.cls-5{fill:url(#linear-gradient-2);}.cls-6{fill:url(#linear-gradient-3);}.cls-7{fill:url(#linear-gradient-4);}</style><linearGradient id="linear-gradient" x1="673.98" y1="73.81" x2="540.89" y2="73.81" gradientUnits="userSpaceOnUse"><stop offset="0" stop-color="#32b195"/><stop offset="0.11" stop-color="#2fa68f"/><stop offset="0.31" stop-color="#28877d"/><stop offset="0.56" stop-color="#1b5662"/><stop offset="0.8" stop-color="#0f2345"/></linearGradient><linearGradient id="linear-gradient-2" x1="673.98" y1="73.86" x2="540.89" y2="73.86" xlink:href="#linear-gradient"/><linearGradient id="linear-gradient-3" x1="673.98" y1="69" x2="540.89" y2="69" xlink:href="#linear-gradient"/><linearGradient id="linear-gradient-4" x1="673.77" y1="73.89" x2="542.7" y2="73.89" xlink:href="#linear-gradient"/></defs><path class="cls-1" d="M465.52,74.4l-33,16.69a1,1,0,0,0,.45,1.89H499a1,1,0,0,0,.45-1.89l-33-16.69A1,1,0,0,0,465.52,74.4Z"/><path class="cls-2" d="M408.75,42A25.09,25.09,0,0,0,402,35.25a24.51,24.51,0,0,0-8.93-3.76,25.07,25.07,0,0,0-14.77,1.45,25.22,25.22,0,0,0-4.24,2.31,24.67,24.67,0,0,0-3.71,3A25.9,25.9,0,0,0,367.28,42a25.17,25.17,0,0,0-2.3,4.24A25.89,25.89,0,0,0,363.74,50h48.55a24.19,24.19,0,0,0-1.23-3.72A24.93,24.93,0,0,0,408.75,42Z"/><path class="cls-3" d="M108.61,38.31a25,25,0,0,1,40.71,7.94,1,1,0,0,0,1.31.53l9.21-3.89a1,1,0,0,0,.54-.55,1,1,0,0,0,0-.76,36.94,36.94,0,1,0,0,28.81,1,1,0,0,0,0-.77,1,1,0,0,0-.54-.55l-9.21-3.89a1,1,0,0,0-1.31.53,25,25,0,1,1-40.71-27.4Z"/><path class="cls-3" d="M229,19.55H219a1,1,0,0,0-1,1V62.93a18,18,0,1,1-36.1,0V20.55a1,1,0,0,0-1-1h-10a1,1,0,0,0-1,1V62.93a30.05,30.05,0,0,0,60.1,0V20.55A1,1,0,0,0,229,19.55Z"/><path class="cls-3" d="M447.92,30.05a18.08,18.08,0,0,1,17.74-18A18.32,18.32,0,0,1,484,30.37v38.3a.92.92,0,0,0,.42.77l10.18,5a.92.92,0,0,0,1.4-.77V30.05a30,30,0,0,0-48.1-24V1a1,1,0,0,0-1-1h-10a1,1,0,0,0-1,1V73.68a.92.92,0,0,0,1.4.77l10.18-5a.92.92,0,0,0,.42-.77Z"/><path class="cls-3" d="M313.47,19.55A27.65,27.65,0,0,0,292,29.91a27.65,27.65,0,0,0-21.5-10.36,27.22,27.22,0,0,0-15.55,4.83V20.57a1,1,0,0,0-1-1h-10a1,1,0,0,0-1,1V92a1,1,0,0,0,1,1h10a1,1,0,0,0,1-1V47.1a15.54,15.54,0,0,1,31-1.27c0,.42,0,.85,0,1.27V92a1.09,1.09,0,0,0,1.1,1h10a1,1,0,0,0,1-1V47.1c0-.42,0-.85,0-1.27a15.54,15.54,0,0,1,31,1.27V92a1,1,0,0,0,1,1h10a1,1,0,0,0,1-1V47.1A27.58,27.58,0,0,0,313.47,19.55Z"/><path class="cls-3" d="M422.11,41.58a36.82,36.82,0,0,0-7.93-11.76,36.94,36.94,0,0,0-5.47-4.51,36.44,36.44,0,0,0-6.29-3.42,37.32,37.32,0,0,0-6.95-2.16,37.06,37.06,0,0,0-21.86,2.16,37.37,37.37,0,0,0-11.75,7.93,36.82,36.82,0,0,0-7.93,11.76,36.59,36.59,0,0,0-2.16,7,37,37,0,0,0,21.85,41.54,36.59,36.59,0,0,0,6.95,2.16,37.38,37.38,0,0,0,14.9,0,36.59,36.59,0,0,0,6.95-2.16,37.07,37.07,0,0,0,16.28-13.4,1,1,0,0,0-.27-1.38l-8.29-5.6a1,1,0,0,0-1.39.27,25.1,25.1,0,0,1-3.05,3.7A25.9,25.9,0,0,1,402,76.72a25.17,25.17,0,0,1-4.24,2.3,24,24,0,0,1-4.69,1.45,25.21,25.21,0,0,1-10.09,0A24.14,24.14,0,0,1,378.29,79a25,25,0,0,1-8-5.36,24.75,24.75,0,0,1-5.36-8A25.1,25.1,0,0,1,363.74,62H424a1,1,0,0,0,1-1V56a36.79,36.79,0,0,0-2.91-14.4ZM363.74,50A25.89,25.89,0,0,1,365,46.25a25.17,25.17,0,0,1,2.3-4.24,25.9,25.9,0,0,1,3.06-3.71,24.67,24.67,0,0,1,3.71-3,25.22,25.22,0,0,1,4.24-2.31,25.12,25.12,0,0,1,19.46,0A25.22,25.22,0,0,1,402,35.25,25.09,25.09,0,0,1,408.75,42a24.93,24.93,0,0,1,2.31,4.25A24.19,24.19,0,0,1,412.29,50Z"/><path class="cls-3" d="M89.69,91.59,50.39.6a1,1,0,0,0-.91-.6H40.3a1,1,0,0,0-.92.6l-39.3,91a1,1,0,0,0,.08.94A1,1,0,0,0,1,93H11.89a1,1,0,0,0,.92-.6L44.89,18.11,77,92.38a1,1,0,0,0,.91.6h10.9a1,1,0,0,0,.83-.45A1,1,0,0,0,89.69,91.59Z"/><path class="cls-3" d="M58.65,66.59l-4.32-10a1,1,0,0,0-.92-.61h-17a1,1,0,0,0-.91.61l-4.32,10A1,1,0,0,0,32.05,68H57.73A1,1,0,0,0,58.65,66.59Z"/><path class="cls-4" d="M521.19,54.84h-5a.69.69,0,0,0-.71.67V92.12a.69.69,0,0,0,.71.67H538a.69.69,0,0,0,.71-.67V87.6a.7.7,0,0,0-.71-.68H522.61a.69.69,0,0,1-.71-.67V55.51A.69.69,0,0,0,521.19,54.84Z"/><path class="cls-5" d="M574.17,59.16a.71.71,0,0,1-1.21.47,18.64,18.64,0,0,0-12.85-4.83c-10.92,0-19.8,8.55-19.8,19.06s8.88,19.06,19.8,19.06A18.64,18.64,0,0,0,573,88.09a.71.71,0,0,1,1.21.47v3.5a.7.7,0,0,0,.71.68H580a.7.7,0,0,0,.71-.68V55.69A.69.69,0,0,0,580,55h-5.07a.69.69,0,0,0-.71.67Zm0,14.7c0,7.32-6,13-13.69,13s-13.69-5.73-13.69-13,6-13,13.69-13S574.17,66.54,574.17,73.86Z"/><path class="cls-6" d="M608.16,54.62a18.76,18.76,0,0,0-12.94,4.88A.71.71,0,0,1,594,59V45.68a.69.69,0,0,0-.71-.67h-5.1a.69.69,0,0,0-.71.67V92.12a.69.69,0,0,0,.71.67h5.1a.69.69,0,0,0,.71-.67V88.58a.71.71,0,0,1,1.21-.47A18.8,18.8,0,0,0,608.16,93c11,0,19.94-8.6,19.94-19.18S619.16,54.62,608.16,54.62ZM621.58,73.8c0,7.37-6.06,13.14-13.79,13.14S594,81.17,594,73.8s6-13.14,13.78-13.14S621.58,66.43,621.58,73.8Z"/><path class="cls-7" d="M647.39,71.12c-5.34-1.39-8.59-2.45-8.59-5.55,0-3.28,3.48-4.75,6.93-4.75,1.76,0,5.89.38,7.8,3.8a.72.72,0,0,0,1,.27l4.28-2.2a.65.65,0,0,0,.29-.9c-2.46-4.39-7.39-7-13.33-7-7.65,0-13.42,4.63-13.42,10.77,0,7.65,7.18,9.52,13,11,5.34,1.39,8.58,2.45,8.58,5.55,0,4.35-5.36,4.82-7.67,4.82-4.22,0-7.62-1.78-9-4.71a.73.73,0,0,0-1-.3l-4.39,2.21a.66.66,0,0,0-.32.86c2.34,4.93,7.92,8,14.73,8,8.34,0,14.17-4.46,14.17-10.84C660.34,74.49,653.16,72.62,647.39,71.12Z"/></svg>